<?xml version="1.0" encoding="UTF-8" standalone="no"?>
<!-- Created with Inkscape (http://www.inkscape.org/) -->

<svg
   xmlns:dc="http://purl.org/dc/elements/1.1/"
   xmlns:cc="http://creativecommons.org/ns#"
   xmlns:rdf="http://www.w3.org/1999/02/22-rdf-syntax-ns#"
   xmlns:svg="http://www.w3.org/2000/svg"
   xmlns="http://www.w3.org/2000/svg"
   xmlns:sodipodi="http://sodipodi.sourceforge.net/DTD/sodipodi-0.dtd"
   xmlns:inkscape="http://www.inkscape.org/namespaces/inkscape"
   width="128"
   height="128"
   viewBox="0 0 33.866666 33.866668"
   version="1.1"
   id="svg8"
   inkscape:version="0.92.3 (2405546, 2018-03-11)"
   sodipodi:docname="logo.svg"
   inkscape:export-filename="S:\dev\2020\ts-keyboard-layout\extension\docs\logo.png"
   inkscape:export-xdpi="96"
   inkscape:export-ydpi="96">
  <defs
     id="defs2" />
  <sodipodi:namedview
     id="base"
     pagecolor="#ffffff"
     bordercolor="#666666"
     borderopacity="1.0"
     inkscape:pageopacity="0.0"
     inkscape:pageshadow="2"
     inkscape:zoom="7.9195959"
     inkscape:cx="41.879742"
     inkscape:cy="60.937349"
     inkscape:document-units="mm"
     inkscape:current-layer="layer1"
     showgrid="false"
     units="px"
     inkscape:window-width="2798"
     inkscape:window-height="1439"
     inkscape:window-x="4036"
     inkscape:window-y="319"
     inkscape:window-maximized="0" />
  <metadata
     id="metadata5">
    <rdf:RDF>
      <cc:Work
         rdf:about="">
        <dc:format>image/svg+xml</dc:format>
        <dc:type
           rdf:resource="http://purl.org/dc/dcmitype/StillImage" />
        <dc:title></dc:title>
      </cc:Work>
    </rdf:RDF>
  </metadata>
  <g
     inkscape:label="Ebene 1"
     inkscape:groupmode="layer"
     id="layer1"
     transform="translate(0,-263.13332)">
    <rect
       style="opacity:1;fill:#007acc;fill-opacity:0.98108108;stroke-width:4.83524799"
       id="rect4565"
       width="33.866665"
       height="33.866665"
       x="0"
       y="263.13333" />
    <path
       id="path4548"
       d="m 20.047631,276.9929 h -1.55715 v -1.22951 h 1.55715 z M 9.1475894,278.2224 H 7.590441 v 1.2295 h 1.5571484 z m 7.7857436,-2.45901 h -1.557149 v 1.22951 h 1.557149 z m -6.228595,0 H 7.590441 v 1.22951 h 3.114297 z m 12.45719,8.60652 h 3.114298 v -1.2295 h -3.114298 z m -6.228595,-4.91801 h 1.557148 v -1.2295 h -1.557148 z m -6.228595,3.68851 H 7.590441 v 1.2295 h 3.114297 z m 12.45719,-7.37702 h -1.557149 v 1.22951 h 1.557149 z m 3.114298,0 h -1.557149 v 1.22951 h 1.557149 z m -3.114298,6.14751 h 3.114298 v -3.6885 h -3.114298 z m 6.228595,-7.377 v 11.06551 c 0,0.67622 -0.700717,1.2295 -1.557148,1.2295 H 6.0332919 c -0.8564317,0 -1.5571485,-0.55328 -1.5571485,-1.2295 V 274.5339 c 0,-0.67623 0.7007168,-1.22951 1.5571485,-1.22951 H 27.833375 c 0.856431,0 1.557148,0.55328 1.557148,1.22951 z m -1.557148,0 H 6.0332919 v 11.06551 H 27.833375 Z m -14.01434,4.918 h 1.557149 v -1.2295 h -1.557149 z m 0,-3.68851 h -1.557148 v 1.22951 h 1.557148 z m -3.114297,3.68851 h 1.557149 v -1.2295 h -1.557149 z m 1.557149,4.91801 h 9.342892 v -1.2295 h -9.342892 z m 7.785744,-4.91801 h 1.557148 v -1.2295 H 20.047631 Z M 9.1475894,280.68141 H 7.590441 v 1.22949 h 1.5571484 z m 7.7857436,0 v 1.22949 h 1.557148 v -1.22949 z m -3.114298,0 v 1.22949 h 1.557149 v -1.22949 z m -1.557148,0 h -1.557149 v 1.22949 h 1.557149 z m 7.785744,1.22949 h 1.557148 v -1.22949 h -1.557148 z"
       inkscape:connector-curvature="0"
       style="fill:#ffffff;fill-opacity:1;fill-rule:evenodd;stroke-width:1.38366067" />
  </g>
</svg>
